<?xml version="1.0" encoding="UTF-8"?>
<!--Generator: Apple Native CoreSVG 148-->
<!DOCTYPE svg
PUBLIC "-//W3C//DTD SVG 1.1//EN"
       "http://www.w3.org/Graphics/SVG/1.1/DTD/svg11.dtd">
<svg version="1.1" xmlns="http://www.w3.org/2000/svg" xmlns:xlink="http://www.w3.org/1999/xlink" width="3300" height="2200">
 <!--glyph: "uni100357.medium", point size: 100.000000, font version: "Version 16.0d11e1", template writer version: "8"-->
 <g id="Notes">
  <rect height="2200" id="artboard" style="fill:white;opacity:1" width="3300" x="0" y="0"/>
  <line id="" style="fill:none;stroke:black;opacity:1;stroke-width:0.5;" x1="263" x2="3036" y1="292" y2="292"/>
  <text style="stroke:none;fill:black;font-family:-apple-system,&quot;SF Pro Display&quot;,&quot;SF Pro Text&quot;,Helvetica,sans-serif;font-weight:bold;" transform="matrix(1 0 0 1 263 322)">Weight/Scale Variations</text>
  <text style="stroke:none;fill:black;font-family:-apple-system,&quot;SF Pro Display&quot;,&quot;SF Pro Text&quot;,Helvetica,sans-serif;text-anchor:middle;" transform="matrix(1 0 0 1 559.711 322)">Ultralight</text>
  <text style="stroke:none;fill:black;font-family:-apple-system,&quot;SF Pro Display&quot;,&quot;SF Pro Text&quot;,Helvetica,sans-serif;text-anchor:middle;" transform="matrix(1 0 0 1 856.422 322)">Thin</text>
  <text style="stroke:none;fill:black;font-family:-apple-system,&quot;SF Pro Display&quot;,&quot;SF Pro Text&quot;,Helvetica,sans-serif;text-anchor:middle;" transform="matrix(1 0 0 1 1153.13 322)">Light</text>
  <text style="stroke:none;fill:black;font-family:-apple-system,&quot;SF Pro Display&quot;,&quot;SF Pro Text&quot;,Helvetica,sans-serif;text-anchor:middle;" transform="matrix(1 0 0 1 1449.84 322)">Regular</text>
  <text style="stroke:none;fill:black;font-family:-apple-system,&quot;SF Pro Display&quot;,&quot;SF Pro Text&quot;,Helvetica,sans-serif;text-anchor:middle;" transform="matrix(1 0 0 1 1746.56 322)">Medium</text>
  <text style="stroke:none;fill:black;font-family:-apple-system,&quot;SF Pro Display&quot;,&quot;SF Pro Text&quot;,Helvetica,sans-serif;text-anchor:middle;" transform="matrix(1 0 0 1 2043.27 322)">Semibold</text>
  <text style="stroke:none;fill:black;font-family:-apple-system,&quot;SF Pro Display&quot;,&quot;SF Pro Text&quot;,Helvetica,sans-serif;text-anchor:middle;" transform="matrix(1 0 0 1 2339.98 322)">Bold</text>
  <text style="stroke:none;fill:black;font-family:-apple-system,&quot;SF Pro Display&quot;,&quot;SF Pro Text&quot;,Helvetica,sans-serif;text-anchor:middle;" transform="matrix(1 0 0 1 2636.69 322)">Heavy</text>
  <text style="stroke:none;fill:black;font-family:-apple-system,&quot;SF Pro Display&quot;,&quot;SF Pro Text&quot;,Helvetica,sans-serif;text-anchor:middle;" transform="matrix(1 0 0 1 2933.4 322)">Black</text>
  <line id="" style="fill:none;stroke:black;opacity:1;stroke-width:0.5;" x1="263" x2="3036" y1="1903" y2="1903"/>
  <g id="" transform="matrix(1 0 0 1 263 1933)">
   <path d="M 9.24805 0.830078 C 13.5547 0.830078 17.1387 -2.74414 17.1387 -7.05078 C 17.1387 -11.3574 13.5449 -14.9316 9.23828 -14.9316 C 4.94141 -14.9316 1.36719 -11.3574 1.36719 -7.05078 C 1.36719 -2.74414 4.95117 0.830078 9.24805 0.830078 Z M 9.24805 -0.654297 C 5.70312 -0.654297 2.87109 -3.49609 2.87109 -7.05078 C 2.87109 -10.6055 5.69336 -13.4473 9.23828 -13.4473 C 12.793 -13.4473 15.6348 -10.6055 15.6445 -7.05078 C 15.6543 -3.49609 12.8027 -0.654297 9.24805 -0.654297 Z M 9.22852 -3.62305 C 9.69727 -3.62305 9.9707 -3.93555 9.9707 -4.45312 L 9.9707 -6.31836 L 12.002 -6.31836 C 12.5 -6.31836 12.832 -6.57227 12.832 -7.04102 C 12.832 -7.51953 12.5195 -7.7832 12.002 -7.7832 L 9.9707 -7.7832 L 9.9707 -9.81445 C 9.9707 -10.332 9.69727 -10.6543 9.22852 -10.6543 C 8.75977 -10.6543 8.50586 -10.3125 8.50586 -9.81445 L 8.50586 -7.7832 L 6.49414 -7.7832 C 5.97656 -7.7832 5.64453 -7.51953 5.64453 -7.04102 C 5.64453 -6.57227 5.99609 -6.31836 6.49414 -6.31836 L 8.50586 -6.31836 L 8.50586 -4.45312 C 8.50586 -3.95508 8.75977 -3.62305 9.22852 -3.62305 Z"/>
  </g>
  <g id="" transform="matrix(1 0 0 1 281.506 1933)">
   <path d="M 11.709 2.91016 C 17.1582 2.91016 21.6699 -1.61133 21.6699 -7.05078 C 21.6699 -12.5 17.1484 -17.0117 11.6992 -17.0117 C 6.25977 -17.0117 1.74805 -12.5 1.74805 -7.05078 C 1.74805 -1.61133 6.26953 2.91016 11.709 2.91016 Z M 11.709 1.25 C 7.09961 1.25 3.41797 -2.44141 3.41797 -7.05078 C 3.41797 -11.6602 7.08984 -15.3516 11.6992 -15.3516 C 16.3086 -15.3516 20 -11.6602 20.0098 -7.05078 C 20.0195 -2.44141 16.3184 1.25 11.709 1.25 Z M 11.6797 -2.66602 C 12.207 -2.66602 12.5098 -3.01758 12.5098 -3.59375 L 12.5098 -6.23047 L 15.3223 -6.23047 C 15.8691 -6.23047 16.25 -6.51367 16.25 -7.03125 C 16.25 -7.55859 15.8887 -7.86133 15.3223 -7.86133 L 12.5098 -7.86133 L 12.5098 -10.6836 C 12.5098 -11.25 12.207 -11.6113 11.6797 -11.6113 C 11.1621 -11.6113 10.8789 -11.2305 10.8789 -10.6836 L 10.8789 -7.86133 L 8.07617 -7.86133 C 7.50977 -7.86133 7.13867 -7.55859 7.13867 -7.03125 C 7.13867 -6.51367 7.5293 -6.23047 8.07617 -6.23047 L 10.8789 -6.23047 L 10.8789 -3.59375 C 10.8789 -3.03711 11.1621 -2.66602 11.6797 -2.66602 Z"/>
  </g>
  <g id="" transform="matrix(1 0 0 1 304.924 1933)">
   <path d="M 14.9707 5.66406 C 21.9336 5.66406 27.6953 -0.0976562 27.6953 -7.05078 C 27.6953 -14.0137 21.9238 -19.7754 14.9609 -19.7754 C 8.00781 -19.7754 2.25586 -14.0137 2.25586 -7.05078 C 2.25586 -0.0976562 8.01758 5.66406 14.9707 5.66406 Z M 14.9707 3.84766 C 8.93555 3.84766 4.08203 -1.01562 4.08203 -7.05078 C 4.08203 -13.0957 8.92578 -17.9492 14.9609 -17.9492 C 21.0059 -17.9492 25.8594 -13.0957 25.8691 -7.05078 C 25.8789 -1.01562 21.0156 3.84766 14.9707 3.84766 Z M 14.9414 -1.38672 C 15.5176 -1.38672 15.8594 -1.77734 15.8594 -2.38281 L 15.8594 -6.13281 L 19.7754 -6.13281 C 20.3711 -6.13281 20.7812 -6.46484 20.7812 -7.02148 C 20.7812 -7.59766 20.3906 -7.93945 19.7754 -7.93945 L 15.8594 -7.93945 L 15.8594 -11.8652 C 15.8594 -12.4805 15.5176 -12.8711 14.9414 -12.8711 C 14.375 -12.8711 14.0527 -12.4609 14.0527 -11.8652 L 14.0527 -7.93945 L 10.1465 -7.93945 C 9.53125 -7.93945 9.13086 -7.59766 9.13086 -7.02148 C 9.13086 -6.46484 9.55078 -6.13281 10.1465 -6.13281 L 14.0527 -6.13281 L 14.0527 -2.38281 C 14.0527 -1.79688 14.375 -1.38672 14.9414 -1.38672 Z"/>
  </g>
  <text style="stroke:none;fill:black;font-family:-apple-system,&quot;SF Pro Display&quot;,&quot;SF Pro Text&quot;,Helvetica,sans-serif;font-weight:bold;" transform="matrix(1 0 0 1 263 1953)">Design Variations</text>
  <text style="stroke:none;fill:black;font-family:-apple-system,&quot;SF Pro Display&quot;,&quot;SF Pro Text&quot;,Helvetica,sans-serif;" transform="matrix(1 0 0 1 263 1971)">Symbols are supported in up to nine weights and three scales.</text>
  <text style="stroke:none;fill:black;font-family:-apple-system,&quot;SF Pro Display&quot;,&quot;SF Pro Text&quot;,Helvetica,sans-serif;" transform="matrix(1 0 0 1 263 1989)">For optimal layout with text and other symbols, vertically align</text>
  <text style="stroke:none;fill:black;font-family:-apple-system,&quot;SF Pro Display&quot;,&quot;SF Pro Text&quot;,Helvetica,sans-serif;" transform="matrix(1 0 0 1 263 2007)">symbols with the adjacent text.</text>
  <line id="" style="fill:none;stroke:#00AEEF;stroke-width:0.5;opacity:1.0;" x1="776" x2="776" y1="1919" y2="1933"/>
  <g id="" transform="matrix(1 0 0 1 776 1933)">
   <path d="M 3.31055 0.126953 C 3.82812 0.126953 4.08203 -0.0683594 4.26758 -0.605469 L 5.52734 -4.0625 L 11.2891 -4.0625 L 12.5488 -0.605469 C 12.7344 -0.0683594 12.9883 0.126953 13.4961 0.126953 C 14.0137 0.126953 14.3457 -0.185547 14.3457 -0.673828 C 14.3457 -0.839844 14.3164 -0.986328 14.2383 -1.20117 L 9.6582 -13.3887 C 9.43359 -13.9941 9.0332 -14.2871 8.4082 -14.2871 C 7.80273 -14.2871 7.39258 -13.9941 7.17773 -13.3984 L 2.59766 -1.19141 C 2.51953 -0.976562 2.49023 -0.830078 2.49023 -0.664062 C 2.49023 -0.175781 2.80273 0.126953 3.31055 0.126953 Z M 6.00586 -5.53711 L 8.37891 -12.1094 L 8.42773 -12.1094 L 10.8008 -5.53711 Z"/>
  </g>
  <line id="" style="fill:none;stroke:#00AEEF;stroke-width:0.5;opacity:1.0;" x1="792.836" x2="792.836" y1="1919" y2="1933"/>
  <text style="stroke:none;fill:black;font-family:-apple-system,&quot;SF Pro Display&quot;,&quot;SF Pro Text&quot;,Helvetica,sans-serif;font-weight:bold;" transform="matrix(1 0 0 1 776 1953)">Margins</text>
  <text style="stroke:none;fill:black;font-family:-apple-system,&quot;SF Pro Display&quot;,&quot;SF Pro Text&quot;,Helvetica,sans-serif;" transform="matrix(1 0 0 1 776 1971)">Leading and trailing margins on the left and right side of each symbol</text>
  <text style="stroke:none;fill:black;font-family:-apple-system,&quot;SF Pro Display&quot;,&quot;SF Pro Text&quot;,Helvetica,sans-serif;" transform="matrix(1 0 0 1 776 1989)">can be adjusted by modifying the x-location of the margin guidelines.</text>
  <text style="stroke:none;fill:black;font-family:-apple-system,&quot;SF Pro Display&quot;,&quot;SF Pro Text&quot;,Helvetica,sans-serif;" transform="matrix(1 0 0 1 776 2007)">Modifications are automatically applied proportionally to all</text>
  <text style="stroke:none;fill:black;font-family:-apple-system,&quot;SF Pro Display&quot;,&quot;SF Pro Text&quot;,Helvetica,sans-serif;" transform="matrix(1 0 0 1 776 2025)">scales and weights.</text>
  <g id="" transform="matrix(1 0 0 1 1289 1933)">
   <path d="M 2.8418 1.86523 L 4.54102 3.57422 C 5.40039 4.44336 6.38672 4.38477 7.31445 3.35938 L 17.4902 -7.85156 C 17.7539 -7.76367 18.0273 -7.7832 18.3398 -7.8418 L 19.4043 -8.03711 L 20.0684 -7.36328 L 20.0293 -6.80664 C 19.9902 -6.30859 20.1172 -5.92773 20.6055 -5.44922 L 21.3672 -4.70703 C 21.8457 -4.22852 22.4609 -4.19922 22.9297 -4.66797 L 25.8398 -7.58789 C 26.3086 -8.05664 26.2891 -8.65234 25.8105 -9.13086 L 25.0391 -9.89258 C 24.5605 -10.3711 24.1895 -10.5273 23.7109 -10.4883 L 23.1348 -10.4395 L 22.4902 -11.0742 L 22.7344 -12.1973 C 22.8613 -12.7637 22.7051 -13.2031 22.1191 -13.7891 L 19.9219 -15.9766 C 16.582 -19.2969 12.1484 -19.2188 9.25781 -16.3281 C 8.83789 -15.918 8.80859 -15.3418 9.04297 -14.9512 C 9.27734 -14.5898 9.73633 -14.3555 10.3809 -14.5215 C 11.8457 -14.8633 13.3691 -14.9219 14.7949 -13.9844 L 14.209 -12.5293 C 14.0137 -12.0508 13.9844 -11.6504 14.1113 -11.2891 L 3.04688 -0.898438 C 2.06055 0.0195312 1.98242 0.996094 2.8418 1.86523 Z M 10.752 -15.957 C 13.1836 -17.7344 16.4746 -17.4316 18.7012 -15.2051 L 21.1328 -12.793 C 21.3672 -12.5586 21.4062 -12.373 21.3379 -12.0312 L 21.0156 -10.5469 L 22.5195 -9.0625 L 23.5059 -9.12109 C 23.7598 -9.13086 23.8379 -9.11133 24.0332 -8.91602 L 24.6094 -8.33984 L 22.168 -5.89844 L 21.5918 -6.47461 C 21.3965 -6.66992 21.3672 -6.74805 21.377 -7.01172 L 21.4453 -7.98828 L 19.9512 -9.47266 L 18.4277 -9.21875 C 18.1055 -9.15039 17.959 -9.17969 17.7148 -9.41406 L 15.7129 -11.416 C 15.459 -11.6504 15.4297 -11.8164 15.5859 -12.1875 L 16.4648 -14.2773 C 14.9023 -15.7324 12.8711 -16.3574 10.8398 -15.7617 C 10.6836 -15.7227 10.625 -15.8496 10.752 -15.957 Z M 5.27344 2.30469 L 4.10156 1.14258 C 3.63281 0.683594 3.74023 0.341797 4.14062 -0.0195312 L 14.9512 -10.1953 L 16.416 -8.71094 L 6.42578 2.27539 C 6.07422 2.67578 5.74219 2.77344 5.27344 2.30469 Z"/>
  </g>
  <text style="stroke:none;fill:black;font-family:-apple-system,&quot;SF Pro Display&quot;,&quot;SF Pro Text&quot;,Helvetica,sans-serif;font-weight:bold;" transform="matrix(1 0 0 1 1289 1953)">Exporting</text>
  <text style="stroke:none;fill:black;font-family:-apple-system,&quot;SF Pro Display&quot;,&quot;SF Pro Text&quot;,Helvetica,sans-serif;" transform="matrix(1 0 0 1 1289 1971)">Symbols should be outlined when exporting to ensure the</text>
  <text style="stroke:none;fill:black;font-family:-apple-system,&quot;SF Pro Display&quot;,&quot;SF Pro Text&quot;,Helvetica,sans-serif;" transform="matrix(1 0 0 1 1289 1989)">design is preserved when submitting to Xcode.</text>
  <text id="template-version" style="stroke:none;fill:black;font-family:-apple-system,&quot;SF Pro Display&quot;,&quot;SF Pro Text&quot;,Helvetica,sans-serif;text-anchor:end;" transform="matrix(1 0 0 1 3036 1933)">Template v.2.0</text>
  <text style="stroke:none;fill:black;font-family:-apple-system,&quot;SF Pro Display&quot;,&quot;SF Pro Text&quot;,Helvetica,sans-serif;text-anchor:end;" transform="matrix(1 0 0 1 3036 1951)">Requires Xcode 12 or greater</text>
  <text style="stroke:none;fill:black;font-family:-apple-system,&quot;SF Pro Display&quot;,&quot;SF Pro Text&quot;,Helvetica,sans-serif;text-anchor:end;" transform="matrix(1 0 0 1 3036 1969)">Generated from envelope.circle</text>
  <text style="stroke:none;fill:black;font-family:-apple-system,&quot;SF Pro Display&quot;,&quot;SF Pro Text&quot;,Helvetica,sans-serif;text-anchor:end;" transform="matrix(1 0 0 1 3036 1987)">Typeset at 100 points</text>
  <text style="stroke:none;fill:black;font-family:-apple-system,&quot;SF Pro Display&quot;,&quot;SF Pro Text&quot;,Helvetica,sans-serif;" transform="matrix(1 0 0 1 263 726)">Small</text>
  <text style="stroke:none;fill:black;font-family:-apple-system,&quot;SF Pro Display&quot;,&quot;SF Pro Text&quot;,Helvetica,sans-serif;" transform="matrix(1 0 0 1 263 1156)">Medium</text>
  <text style="stroke:none;fill:black;font-family:-apple-system,&quot;SF Pro Display&quot;,&quot;SF Pro Text&quot;,Helvetica,sans-serif;" transform="matrix(1 0 0 1 263 1586)">Large</text>
 </g>
 <g id="Guides">
  <g id="H-reference" style="fill:#27AAE1;stroke:none;" transform="matrix(1 0 0 1 339 696)">
   <path d="M 0.976562 0 L 3.66211 0 L 12.9883 -24.4629 L 45.7031 -24.4629 L 55.0781 0 L 57.7148 0 L 30.6152 -70.459 L 28.125 -70.459 Z M 29.2969 -67.1387 L 29.3945 -67.1387 L 44.873 -26.709 L 13.8672 -26.709 Z"/>
  </g>
  <line id="Baseline-S" style="fill:none;stroke:#27AAE1;opacity:1;stroke-width:0.5;" x1="263" x2="3036" y1="696" y2="696"/>
  <line id="Capline-S" style="fill:none;stroke:#27AAE1;opacity:1;stroke-width:0.5;" x1="263" x2="3036" y1="625.541" y2="625.541"/>
  <g id="H-reference" style="fill:#27AAE1;stroke:none;" transform="matrix(1 0 0 1 339 1126)">
   <path d="M 0.976562 0 L 3.66211 0 L 12.9883 -24.4629 L 45.7031 -24.4629 L 55.0781 0 L 57.7148 0 L 30.6152 -70.459 L 28.125 -70.459 Z M 29.2969 -67.1387 L 29.3945 -67.1387 L 44.873 -26.709 L 13.8672 -26.709 Z"/>
  </g>
  <line id="Baseline-M" style="fill:none;stroke:#27AAE1;opacity:1;stroke-width:0.5;" x1="263" x2="3036" y1="1126" y2="1126"/>
  <line id="Capline-M" style="fill:none;stroke:#27AAE1;opacity:1;stroke-width:0.5;" x1="263" x2="3036" y1="1055.54" y2="1055.54"/>
  <g id="H-reference" style="fill:#27AAE1;stroke:none;" transform="matrix(1 0 0 1 339 1556)">
   <path d="M 0.976562 0 L 3.66211 0 L 12.9883 -24.4629 L 45.7031 -24.4629 L 55.0781 0 L 57.7148 0 L 30.6152 -70.459 L 28.125 -70.459 Z M 29.2969 -67.1387 L 29.3945 -67.1387 L 44.873 -26.709 L 13.8672 -26.709 Z"/>
  </g>
  <line id="Baseline-L" style="fill:none;stroke:#27AAE1;opacity:1;stroke-width:0.5;" x1="263" x2="3036" y1="1556" y2="1556"/>
  <line id="Capline-L" style="fill:none;stroke:#27AAE1;opacity:1;stroke-width:0.5;" x1="263" x2="3036" y1="1485.54" y2="1485.54"/>
  <line id="left-margin" style="fill:none;stroke:#00AEEF;stroke-width:0.5;opacity:1.0;" x1="1391.3" x2="1391.3" y1="1030.79" y2="1150.12"/>
  <line id="right-margin" style="fill:none;stroke:#00AEEF;stroke-width:0.5;opacity:1.0;" x1="1508.39" x2="1508.39" y1="1030.79" y2="1150.12"/>
 </g>
 <g id="Symbols">
  <g id="Black-L" transform="matrix(1 0 0 1 2854.05 1556)">
   <path d="M 79.3457 32.8613 C 116.748 32.8613 147.412 2.19727 147.412 -35.2051 C 147.412 -72.6074 116.748 -103.271 79.2969 -103.271 C 41.8945 -103.271 11.2793 -72.6074 11.2793 -35.2051 C 11.2793 2.19727 41.9434 32.8613 79.3457 32.8613 Z M 79.3457 12.4023 C 52.9785 12.4023 31.7383 -8.83789 31.7383 -35.2051 C 31.7383 -61.5723 52.9297 -82.8125 79.2969 -82.8125 C 105.664 -82.8125 126.953 -61.5723 126.953 -35.2051 C 127.002 -8.83789 105.713 12.4023 79.3457 12.4023 Z M 79.2969 -33.7402 C 80.4688 -33.7402 81.543 -34.3262 82.7637 -35.5957 L 106.348 -59.1797 C 105.273 -59.8633 103.467 -60.3027 101.074 -60.3027 L 57.5195 -60.3027 C 55.127 -60.3027 53.2715 -59.8633 52.2461 -59.1797 L 75.8301 -35.5957 C 77.0996 -34.2773 78.1738 -33.7402 79.2969 -33.7402 Z M 67.8711 -35.7422 L 48.3887 -55.0781 C 47.7539 -54.0527 47.3145 -52.2949 47.3145 -49.9023 L 47.3145 -20.5078 C 47.3145 -18.4082 47.6074 -16.8457 48.0957 -15.918 Z M 90.7227 -35.7422 L 110.449 -15.918 C 110.986 -16.8457 111.23 -18.4082 111.23 -20.5078 L 111.23 -49.9023 C 111.23 -52.2949 110.84 -54.0527 110.156 -55.0781 Z M 79.2969 -27.7832 C 77.002 -27.7832 75.0977 -28.6133 73.1445 -30.5176 L 71.8262 -31.7871 L 51.5625 -11.5234 C 52.6855 -10.6445 54.6875 -10.1074 57.373 -10.1074 L 101.172 -10.1074 C 103.857 -10.1074 105.859 -10.6445 107.031 -11.5234 L 86.7188 -31.7871 L 85.4492 -30.5176 C 83.4961 -28.6133 81.543 -27.7832 79.2969 -27.7832 Z"/>
  </g>
  <g id="Heavy-L" transform="matrix(1 0 0 1 2558.39 1556)">
   <path d="M 78.2715 31.7871 C 115.088 31.7871 145.312 1.5625 145.312 -35.2051 C 145.312 -72.0215 115.039 -102.246 78.2715 -102.246 C 41.4551 -102.246 11.2793 -72.0215 11.2793 -35.2051 C 11.2793 1.5625 41.5039 31.7871 78.2715 31.7871 Z M 78.2715 14.0137 C 51.0254 14.0137 29.0527 -7.95898 29.0527 -35.2051 C 29.0527 -62.5 50.9766 -84.4727 78.2715 -84.4727 C 105.518 -84.4727 127.49 -62.5 127.539 -35.2051 C 127.539 -7.95898 105.566 14.0137 78.2715 14.0137 Z M 78.2715 -33.252 C 79.4434 -33.252 80.5176 -33.7402 81.7383 -35.0098 L 106.25 -59.5703 C 105.273 -60.2539 103.467 -60.7422 100.977 -60.7422 L 55.5176 -60.7422 C 53.0762 -60.7422 51.2207 -60.2539 50.2441 -59.5703 L 74.7559 -35.0098 C 76.0254 -33.7402 77.0996 -33.252 78.2715 -33.252 Z M 66.6992 -35.5957 L 46.6309 -55.5176 C 46.0449 -54.5898 45.7031 -52.8809 45.7031 -50.5859 L 45.7031 -19.873 C 45.7031 -17.7246 45.9473 -16.2109 46.4355 -15.2832 Z M 89.7461 -35.5957 L 110.01 -15.2832 C 110.498 -16.2109 110.742 -17.7246 110.742 -19.873 L 110.742 -50.5859 C 110.742 -52.8809 110.4 -54.5898 109.814 -55.5176 Z M 78.2227 -27.6367 C 75.9766 -27.6367 74.0723 -28.4668 72.0703 -30.3711 L 70.5566 -31.8359 L 49.7559 -11.084 C 50.8301 -10.2051 52.7832 -9.7168 55.4199 -9.7168 L 101.074 -9.7168 C 103.711 -9.7168 105.664 -10.2051 106.689 -11.084 L 85.9375 -31.8359 L 84.4238 -30.3711 C 82.373 -28.4668 80.5176 -27.6367 78.2227 -27.6367 Z"/>
  </g>
  <g id="Bold-L" transform="matrix(1 0 0 1 2262.88 1556)">
   <path d="M 77.0996 30.5664 C 113.232 30.5664 142.92 0.878906 142.92 -35.2539 C 142.92 -71.3379 113.184 -101.074 77.0508 -101.074 C 40.9668 -101.074 11.2793 -71.3379 11.2793 -35.2539 C 11.2793 0.878906 41.0156 30.5664 77.0996 30.5664 Z M 77.0996 15.8203 C 48.8281 15.8203 26.0742 -6.98242 26.0742 -35.2539 C 26.0742 -63.5254 48.7793 -86.2793 77.0508 -86.2793 C 105.371 -86.2793 128.125 -63.5254 128.174 -35.2539 C 128.174 -6.98242 105.371 15.8203 77.0996 15.8203 Z M 77.0996 -32.666 C 78.2227 -32.666 79.3945 -33.1543 80.5664 -34.375 L 106.152 -59.9609 C 105.225 -60.6445 103.418 -61.1816 100.879 -61.1816 L 53.3203 -61.1816 C 50.7812 -61.1816 48.9258 -60.6445 47.998 -59.9609 L 73.584 -34.375 C 74.8535 -33.1055 75.9766 -32.666 77.0996 -32.666 Z M 65.3809 -35.4004 L 44.6777 -56.0059 C 44.1406 -55.1758 43.8477 -53.5156 43.8477 -51.2695 L 43.8477 -19.1406 C 43.8477 -16.9922 44.0918 -15.4785 44.6289 -14.5996 Z M 88.6719 -35.4004 L 109.424 -14.5996 C 109.961 -15.4785 110.205 -16.9922 110.205 -19.1406 L 110.205 -51.2695 C 110.205 -53.5156 109.912 -55.1758 109.375 -56.0059 Z M 77.0508 -27.4414 C 74.8535 -27.4414 72.998 -28.2715 70.8984 -30.2734 L 69.1406 -31.8848 L 47.7539 -10.5469 C 48.7305 -9.7168 50.5859 -9.27734 53.2227 -9.27734 L 100.879 -9.27734 C 103.564 -9.27734 105.42 -9.7168 106.348 -10.5469 L 85.0098 -31.8848 L 83.252 -30.2734 C 81.1523 -28.2715 79.2969 -27.4414 77.0508 -27.4414 Z"/>
  </g>
  <g id="Semibold-L" transform="matrix(1 0 0 1 1966.97 1556)">
   <path d="M 76.2695 29.7363 C 111.914 29.7363 141.309 0.390625 141.309 -35.2539 C 141.309 -70.8984 111.865 -100.244 76.2695 -100.244 C 40.625 -100.244 11.2793 -70.8984 11.2793 -35.2539 C 11.2793 0.390625 40.6738 29.7363 76.2695 29.7363 Z M 76.2695 17.041 C 47.3145 17.041 24.0234 -6.25 24.0234 -35.2539 C 24.0234 -64.209 47.2656 -87.5488 76.2695 -87.5488 C 105.225 -87.5488 128.564 -64.209 128.613 -35.2539 C 128.662 -6.25 105.273 17.041 76.2695 17.041 Z M 76.3184 -32.2266 C 77.4414 -32.2266 78.6133 -32.7148 79.7852 -33.9355 L 106.104 -60.2539 C 105.225 -60.9375 103.418 -61.5234 100.781 -61.5234 L 51.7578 -61.5234 C 49.1699 -61.5234 47.3145 -60.9375 46.4844 -60.2539 L 72.7539 -33.9355 C 74.0234 -32.7148 75.1953 -32.2266 76.3184 -32.2266 Z M 64.4531 -35.2539 L 43.3105 -56.3477 C 42.8223 -55.6152 42.5781 -54.0039 42.5781 -51.8066 L 42.5781 -18.6523 C 42.5781 -16.5039 42.8223 -14.9414 43.3105 -14.1113 Z M 87.9395 -35.2539 L 109.082 -14.1113 C 109.57 -14.9414 109.863 -16.5039 109.863 -18.6523 L 109.863 -51.8066 C 109.863 -54.0039 109.57 -55.6152 109.082 -56.3477 Z M 76.2695 -27.2949 C 74.0234 -27.2949 72.2168 -28.125 70.0684 -30.127 L 68.1152 -31.9336 L 46.3867 -10.2051 C 47.2656 -9.42383 49.0723 -8.93555 51.7578 -8.93555 L 100.781 -8.93555 C 103.467 -8.93555 105.273 -9.42383 106.104 -10.2051 L 84.375 -31.9336 L 82.4707 -30.127 C 80.3223 -28.125 78.5156 -27.2949 76.2695 -27.2949 Z"/>
  </g>
  <g id="Medium-L" transform="matrix(1 0 0 1 1670.87 1556)">
   <path d="M 75.6836 29.1504 C 110.938 29.1504 140.088 0 140.088 -35.2539 C 140.088 -70.5078 110.889 -99.6582 75.6348 -99.6582 C 40.3809 -99.6582 11.2793 -70.5078 11.2793 -35.2539 C 11.2793 0 40.3809 29.1504 75.6836 29.1504 Z M 75.6836 18.0176 C 46.1426 18.0176 22.4609 -5.76172 22.4609 -35.2539 C 22.4609 -64.7461 46.1426 -88.5254 75.6348 -88.5254 C 105.127 -88.5254 128.906 -64.7461 128.906 -35.2539 C 128.955 -5.76172 105.176 18.0176 75.6836 18.0176 Z M 75.6836 -31.9336 C 76.8066 -31.9336 78.0273 -32.4219 79.1992 -33.5938 L 106.055 -60.4492 C 105.225 -61.1328 103.369 -61.7676 100.732 -61.7676 L 50.6348 -61.7676 C 47.9492 -61.7676 46.0938 -61.1328 45.3125 -60.4492 L 72.168 -33.5938 C 73.3887 -32.373 74.5605 -31.9336 75.6836 -31.9336 Z M 63.7695 -35.1562 L 42.2852 -56.5918 C 41.8457 -55.9082 41.6016 -54.3457 41.6016 -52.1484 L 41.6016 -18.3105 C 41.6016 -16.1133 41.8457 -14.5508 42.3828 -13.7695 Z M 87.3535 -35.1562 L 108.789 -13.7695 C 109.277 -14.5508 109.57 -16.1133 109.57 -18.3105 L 109.57 -52.1484 C 109.57 -54.3457 109.326 -55.9082 108.887 -56.5918 Z M 75.6348 -27.1973 C 73.4375 -27.1973 71.6309 -28.0273 69.4336 -30.0781 L 67.3828 -31.9824 L 45.3613 -9.96094 C 46.1914 -9.17969 47.9492 -8.74023 50.5859 -8.74023 L 100.732 -8.74023 C 103.369 -8.74023 105.127 -9.17969 105.957 -9.96094 L 83.9355 -31.9824 L 81.8359 -30.0781 C 79.6387 -28.0273 77.8809 -27.1973 75.6348 -27.1973 Z"/>
  </g>
  <g id="Regular-L" transform="matrix(1 0 0 1 1374.97 1556)">
   <path d="M 74.8535 28.3203 C 109.668 28.3203 138.477 -0.488281 138.477 -35.2539 C 138.477 -70.0684 109.619 -98.877 74.8047 -98.877 C 40.0391 -98.877 11.2793 -70.0684 11.2793 -35.2539 C 11.2793 -0.488281 40.0879 28.3203 74.8535 28.3203 Z M 74.8535 19.2383 C 44.6777 19.2383 20.4102 -5.07812 20.4102 -35.2539 C 20.4102 -65.4785 44.6289 -89.7461 74.8047 -89.7461 C 105.029 -89.7461 129.297 -65.4785 129.346 -35.2539 C 129.395 -5.07812 105.078 19.2383 74.8535 19.2383 Z M 74.9023 -31.543 C 76.0254 -31.543 77.2461 -31.9824 78.3691 -33.1543 L 106.006 -60.7422 C 105.225 -61.4258 103.369 -62.0605 100.684 -62.0605 L 49.1211 -62.0605 C 46.3867 -62.0605 44.5312 -61.4258 43.75 -60.7422 L 71.3379 -33.1543 C 72.5586 -31.9336 73.7793 -31.543 74.9023 -31.543 Z M 62.8906 -35.0586 L 40.9668 -56.9336 C 40.5762 -56.3477 40.332 -54.7852 40.332 -52.6367 L 40.332 -17.8223 C 40.332 -15.625 40.5762 -14.0625 41.1133 -13.2812 Z M 86.6211 -35.0586 L 108.447 -13.2812 C 108.936 -14.0625 109.18 -15.625 109.18 -17.8223 L 109.18 -52.6367 C 109.18 -54.7852 108.984 -56.3477 108.594 -56.9336 Z M 74.8535 -27.0996 C 72.6562 -27.0996 70.8496 -27.8809 68.6035 -29.9805 L 66.4062 -32.0312 L 43.9453 -9.61914 C 44.7754 -8.83789 46.4844 -8.39844 49.1211 -8.39844 L 100.635 -8.39844 C 103.271 -8.39844 104.98 -8.83789 105.713 -9.61914 L 83.3008 -32.0312 L 81.0547 -29.9805 C 78.8086 -27.8809 77.0508 -27.0996 74.8535 -27.0996 Z"/>
  </g>
  <g id="Light-L" transform="matrix(1 0 0 1 1079.18 1556)">
   <path d="M 73.9258 27.3926 C 108.301 27.3926 136.621 -0.927734 136.621 -35.2539 C 136.621 -69.6289 108.252 -97.9492 73.9258 -97.9492 C 39.5508 -97.9492 11.2793 -69.6289 11.2793 -35.2539 C 11.2793 -0.927734 39.5996 27.3926 73.9258 27.3926 Z M 73.9258 20.5078 C 43.1152 20.5078 18.2129 -4.44336 18.2129 -35.2539 C 18.2129 -66.1133 43.0664 -91.0156 73.9258 -91.0156 C 104.736 -91.0156 129.688 -66.1133 129.736 -35.2539 C 129.736 -4.44336 104.785 20.5078 73.9258 20.5078 Z M 74.0723 -31.1035 C 75.1953 -31.1035 76.5625 -31.6406 77.6367 -32.7148 L 105.371 -60.4492 C 104.639 -61.2305 102.686 -61.8652 99.9023 -61.8652 L 48.1445 -61.8652 C 45.3613 -61.8652 43.457 -61.2305 42.7246 -60.4492 L 70.3613 -32.7148 C 71.582 -31.5918 72.9004 -31.1035 74.0723 -31.1035 Z M 62.5 -34.9121 L 40.2344 -57.1777 C 39.7949 -56.4941 39.5508 -54.9805 39.5508 -52.8809 L 39.5508 -17.5781 C 39.5508 -15.332 39.8438 -13.7695 40.4785 -12.9395 Z M 85.2539 -34.9121 L 107.275 -12.9395 C 107.91 -13.7695 108.203 -15.332 108.203 -17.5781 L 108.203 -52.8809 C 108.203 -54.9805 107.959 -56.4941 107.52 -57.1777 Z M 74.0234 -27.3438 C 71.875 -27.3438 70.0684 -28.1738 68.0664 -30.0293 L 65.5762 -32.3242 L 42.9688 -9.76562 C 43.7988 -8.93555 45.459 -8.54492 48.1445 -8.54492 L 99.9023 -8.54492 C 102.588 -8.54492 104.248 -8.93555 105.029 -9.76562 L 82.4707 -32.3242 L 79.9805 -30.0293 C 77.9297 -28.1738 76.1719 -27.3438 74.0234 -27.3438 Z"/>
  </g>
  <g id="Thin-L" transform="matrix(1 0 0 1 783.693 1556)">
   <path d="M 72.7051 26.1719 C 106.494 26.1719 134.18 -1.51367 134.18 -35.2539 C 134.18 -69.043 106.494 -96.7285 72.7051 -96.7285 C 38.9648 -96.7285 11.2793 -69.043 11.2793 -35.2539 C 11.2793 -1.51367 38.9648 26.1719 72.7051 26.1719 Z M 72.7051 22.168 C 41.0156 22.168 15.2832 -3.56445 15.2832 -35.2539 C 15.2832 -66.9922 41.0156 -92.7246 72.7051 -92.7246 C 104.395 -92.7246 130.176 -66.9922 130.176 -35.2539 C 130.176 -3.56445 104.443 22.168 72.7051 22.168 Z M 72.9492 -30.5176 C 74.1211 -30.5176 75.6348 -31.1523 76.6602 -32.1777 L 104.541 -60.0586 C 103.809 -60.9375 101.807 -61.6211 98.9258 -61.6211 L 46.9238 -61.6211 C 44.043 -61.6211 42.041 -60.9375 41.3086 -60.0586 L 69.0918 -32.1777 C 70.2637 -31.1523 71.7285 -30.5176 72.9492 -30.5176 Z M 62.0117 -34.7656 L 39.2578 -57.4707 C 38.8184 -56.7383 38.4766 -55.2246 38.4766 -53.125 L 38.4766 -17.2363 C 38.4766 -14.9902 38.8672 -13.4277 39.6484 -12.4512 Z M 83.3984 -34.7656 L 105.762 -12.4512 C 106.543 -13.4277 106.934 -14.9902 106.934 -17.2363 L 106.934 -53.125 C 106.934 -55.2246 106.592 -56.7383 106.152 -57.4707 Z M 72.9492 -27.6855 C 70.8984 -27.6855 68.9941 -28.5156 67.2852 -30.127 L 64.502 -32.7637 L 41.6992 -10.0098 C 42.5781 -9.08203 44.1895 -8.74023 46.9238 -8.74023 L 98.9258 -8.74023 C 101.66 -8.74023 103.271 -9.08203 104.102 -10.0098 L 81.3477 -32.7637 L 78.4668 -30.127 C 76.8066 -28.5156 74.9512 -27.6855 72.9492 -27.6855 Z"/>
  </g>
  <g id="Ultralight-L" transform="matrix(1 0 0 1 487.616 1556)">
   <path d="M 72.1191 25.5371 C 105.566 25.5371 132.91 -1.80664 132.91 -35.2539 C 132.91 -68.75 105.566 -96.0938 72.1191 -96.0938 C 38.623 -96.0938 11.2793 -68.75 11.2793 -35.2539 C 11.2793 -1.80664 38.623 25.5371 72.1191 25.5371 Z M 72.1191 23.0469 C 39.9414 23.0469 13.7695 -3.125 13.7695 -35.2539 C 13.7695 -67.4316 39.9414 -93.6035 72.1191 -93.6035 C 104.248 -93.6035 130.42 -67.4316 130.42 -35.2539 C 130.42 -3.125 104.248 23.0469 72.1191 23.0469 Z M 72.3633 -30.2246 C 73.584 -30.2246 75.1465 -30.9082 76.1719 -31.9336 L 104.102 -59.8633 C 103.418 -60.791 101.367 -61.5234 98.4375 -61.5234 L 46.2891 -61.5234 C 43.3594 -61.5234 41.3086 -60.791 40.625 -59.8633 L 68.457 -31.9336 C 69.5801 -30.9082 71.1426 -30.2246 72.3633 -30.2246 Z M 61.7188 -34.668 L 38.7695 -57.6172 C 38.2812 -56.8848 37.9395 -55.3711 37.9395 -53.2715 L 37.9395 -17.0898 C 37.9395 -14.8438 38.3789 -13.2324 39.209 -12.2559 Z M 82.4707 -34.668 L 104.98 -12.2559 C 105.811 -13.2324 106.25 -14.8438 106.25 -17.0898 L 106.25 -53.2715 C 106.25 -55.3711 105.908 -56.8848 105.42 -57.6172 Z M 72.3633 -27.8809 C 70.3613 -27.8809 68.4082 -28.6621 66.8945 -30.127 L 63.916 -32.959 L 41.0156 -10.1562 C 41.9434 -9.17969 43.5059 -8.83789 46.2891 -8.83789 L 98.4375 -8.83789 C 101.221 -8.83789 102.783 -9.17969 103.613 -10.1562 L 80.8105 -32.959 L 77.7344 -30.127 C 76.2207 -28.6621 74.3652 -27.8809 72.3633 -27.8809 Z"/>
  </g>
  <g id="Black-M" transform="matrix(1 0 0 1 2870.97 1126)">
   <path d="M 62.4023 18.457 C 91.9922 18.457 116.113 -5.61523 116.113 -35.2051 C 116.113 -64.7949 91.9922 -88.8672 62.4023 -88.8672 C 32.8125 -88.8672 8.74023 -64.7949 8.74023 -35.2051 C 8.74023 -5.61523 32.8125 18.457 62.4023 18.457 Z M 62.4023 0.195312 C 42.8711 0.195312 27.002 -15.625 27.002 -35.2051 C 27.002 -54.7363 42.8711 -70.6055 62.4023 -70.6055 C 81.9824 -70.6055 97.8027 -54.7363 97.8027 -35.2051 C 97.8027 -15.625 81.9824 0.195312 62.4023 0.195312 Z M 62.4023 -34.5703 C 63.3789 -34.5703 64.1602 -35.0586 65.1855 -36.0352 L 82.2266 -53.1738 C 81.25 -53.7109 79.8828 -54.0527 78.0762 -54.0527 L 46.7285 -54.0527 C 44.9707 -54.0527 43.5059 -53.7109 42.627 -53.1738 L 59.668 -36.0352 C 60.6934 -35.0586 61.4746 -34.5703 62.4023 -34.5703 Z M 53.9551 -35.791 L 39.502 -50.0977 C 38.8672 -49.1699 38.4766 -47.7539 38.4766 -45.8496 L 38.4766 -24.5605 C 38.4766 -22.9004 38.7695 -21.7285 39.209 -20.8984 Z M 70.8496 -35.791 L 85.6445 -20.8984 C 86.084 -21.7285 86.3281 -22.9004 86.3281 -24.5605 L 86.3281 -45.8496 C 86.3281 -47.7539 85.9863 -49.1699 85.3516 -50.0977 Z M 62.4023 -29.7852 C 60.6934 -29.7852 59.1309 -30.4688 57.8125 -31.7871 L 56.9824 -32.666 L 41.8457 -17.5781 C 42.8711 -16.7969 44.4824 -16.3574 46.6309 -16.3574 L 78.2227 -16.3574 C 80.3223 -16.3574 81.9824 -16.7969 82.959 -17.5781 L 67.8711 -32.666 L 67.041 -31.7871 C 65.7227 -30.4688 64.1602 -29.7852 62.4023 -29.7852 Z"/>
  </g>
  <g id="Heavy-M" transform="matrix(1 0 0 1 2575.19 1126)">
   <path d="M 61.5234 17.5293 C 90.5273 17.5293 114.258 -6.20117 114.258 -35.2051 C 114.258 -64.2578 90.5273 -87.9883 61.4746 -87.9883 C 32.4707 -87.9883 8.74023 -64.2578 8.74023 -35.2051 C 8.74023 -6.20117 32.4707 17.5293 61.5234 17.5293 Z M 61.5234 1.61133 C 41.1133 1.61133 24.6582 -14.8438 24.6582 -35.2051 C 24.6582 -55.6152 41.1133 -72.0703 61.4746 -72.0703 C 81.8848 -72.0703 98.3398 -55.6152 98.3398 -35.2051 C 98.3398 -14.8438 81.8848 1.61133 61.5234 1.61133 Z M 61.5234 -34.082 C 62.4023 -34.082 63.2324 -34.5703 64.209 -35.5469 L 82.2754 -53.6133 C 81.3965 -54.1992 80.0293 -54.541 78.1738 -54.541 L 44.8242 -54.541 C 42.9688 -54.541 41.5527 -54.1992 40.7227 -53.6133 L 58.7891 -35.5469 C 59.7656 -34.5215 60.5957 -34.082 61.5234 -34.082 Z M 52.7832 -35.6445 L 37.793 -50.5371 C 37.207 -49.707 36.9141 -48.3398 36.9141 -46.4844 L 36.9141 -23.9258 C 36.9141 -22.2656 37.1094 -21.0938 37.5488 -20.3125 Z M 70.166 -35.6445 L 85.4492 -20.3125 C 85.8398 -21.0938 86.084 -22.2656 86.084 -23.9258 L 86.084 -46.4844 C 86.084 -48.3398 85.7422 -49.707 85.2051 -50.5371 Z M 61.4746 -29.541 C 59.7656 -29.541 58.252 -30.2246 56.7871 -31.6406 L 55.7617 -32.6172 L 40.1855 -16.9922 C 41.0645 -16.3086 42.627 -15.8691 44.7266 -15.8691 L 78.2715 -15.8691 C 80.3711 -15.8691 81.9336 -16.3086 82.8125 -16.9922 L 67.1875 -32.6172 L 66.1621 -31.6406 C 64.7461 -30.2246 63.2324 -29.541 61.4746 -29.541 Z"/>
  </g>
  <g id="Bold-M" transform="matrix(1 0 0 1 2279.5 1126)">
   <path d="M 60.498 16.5039 C 88.8672 16.5039 112.207 -6.83594 112.207 -35.2051 C 112.207 -63.623 88.8672 -86.9629 60.4492 -86.9629 C 32.0312 -86.9629 8.74023 -63.623 8.74023 -35.2051 C 8.74023 -6.83594 32.0801 16.5039 60.498 16.5039 Z M 60.498 3.22266 C 39.1602 3.22266 22.0703 -13.916 22.0703 -35.2051 C 22.0703 -56.543 39.1602 -73.6816 60.4492 -73.6816 C 81.7383 -73.6816 98.9258 -56.543 98.9258 -35.2051 C 98.9746 -13.916 81.7871 3.22266 60.498 3.22266 Z M 60.498 -33.5938 C 61.377 -33.5938 62.207 -33.9844 63.1836 -34.9609 L 82.373 -54.1504 C 81.5918 -54.6875 80.1758 -55.0781 78.2715 -55.0781 L 42.6758 -55.0781 C 40.7227 -55.0781 39.3066 -54.6875 38.5742 -54.1504 L 57.7637 -34.9609 C 58.7402 -33.9844 59.5703 -33.5938 60.498 -33.5938 Z M 51.4648 -35.4492 L 35.8398 -51.0254 C 35.3516 -50.3418 35.1074 -49.0234 35.1074 -47.2168 L 35.1074 -23.1934 C 35.1074 -21.5332 35.3027 -20.3613 35.6934 -19.6777 Z M 69.3848 -35.4492 L 85.1562 -19.6777 C 85.5469 -20.3613 85.7422 -21.5332 85.7422 -23.1934 L 85.7422 -47.2168 C 85.7422 -49.0234 85.498 -50.3418 85.0586 -51.0254 Z M 60.4492 -29.2969 C 58.6914 -29.2969 57.2754 -29.9316 55.6641 -31.4453 L 54.4434 -32.6172 L 38.2324 -16.4062 C 39.0625 -15.7715 40.5273 -15.3809 42.627 -15.3809 L 78.3203 -15.3809 C 80.3711 -15.3809 81.8848 -15.7715 82.666 -16.4062 L 66.4551 -32.6172 L 65.2344 -31.4453 C 63.6719 -29.9316 62.207 -29.2969 60.4492 -29.2969 Z"/>
  </g>
  <g id="Semibold-M" transform="matrix(1 0 0 1 1983.5 1126)">
   <path d="M 59.7656 15.8203 C 87.7441 15.8203 110.791 -7.27539 110.791 -35.2539 C 110.791 -63.2324 87.6953 -86.2793 59.7656 -86.2793 C 31.7871 -86.2793 8.74023 -63.2324 8.74023 -35.2539 C 8.74023 -7.27539 31.7871 15.8203 59.7656 15.8203 Z M 59.7656 4.3457 C 37.8418 4.3457 20.2637 -13.3301 20.2637 -35.2539 C 20.2637 -57.1777 37.793 -74.8047 59.7656 -74.8047 C 81.6895 -74.8047 99.3164 -57.1777 99.3652 -35.2539 C 99.3652 -13.3301 81.6895 4.3457 59.7656 4.3457 Z M 59.7656 -33.252 C 60.6445 -33.252 61.5234 -33.5938 62.4512 -34.5215 L 82.4219 -54.541 C 81.6895 -55.0293 80.3223 -55.4688 78.3203 -55.4688 L 41.2109 -55.4688 C 39.209 -55.4688 37.793 -55.0293 37.1094 -54.541 L 57.0801 -34.5215 C 58.0566 -33.5938 58.8867 -33.252 59.7656 -33.252 Z M 50.5859 -35.3516 L 34.4727 -51.3672 C 34.082 -50.7324 33.8867 -49.4629 33.8867 -47.7539 L 33.8867 -22.7051 C 33.8867 -21.0449 34.082 -19.873 34.4238 -19.2383 Z M 68.8477 -35.3516 L 85.0098 -19.2383 C 85.3516 -19.873 85.5469 -21.0449 85.5469 -22.7051 L 85.5469 -47.7539 C 85.5469 -49.4629 85.3516 -50.7324 84.9609 -51.3672 Z M 59.7656 -29.1016 C 58.0078 -29.1016 56.5918 -29.7363 54.8828 -31.3477 L 53.5645 -32.5684 L 36.9141 -16.0156 C 37.6465 -15.3809 39.1113 -14.9902 41.1621 -14.9902 L 78.3203 -14.9902 C 80.3711 -14.9902 81.8359 -15.3809 82.5195 -16.0156 L 65.918 -32.5684 L 64.5996 -31.3477 C 62.8906 -29.7363 61.4746 -29.1016 59.7656 -29.1016 Z"/>
  </g>
  <g id="Medium-M" transform="matrix(1 0 0 1 1687.3 1126)">
   <path d="M 59.2285 15.2344 C 86.9141 15.2344 109.766 -7.61719 109.766 -35.2539 C 109.766 -62.8906 86.8652 -85.7422 59.1797 -85.7422 C 31.543 -85.7422 8.74023 -62.8906 8.74023 -35.2539 C 8.74023 -7.61719 31.5918 15.2344 59.2285 15.2344 Z M 59.2285 5.17578 C 36.8164 5.17578 18.8965 -12.8418 18.8965 -35.2539 C 18.8965 -57.666 36.8164 -75.6348 59.1797 -75.6348 C 81.5918 -75.6348 99.6094 -57.666 99.6582 -35.2539 C 99.707 -12.8418 81.6406 5.17578 59.2285 5.17578 Z M 59.2285 -32.959 C 60.1074 -32.959 60.9863 -33.3008 61.9141 -34.2285 L 82.4707 -54.834 C 81.7871 -55.3223 80.3711 -55.7617 78.3691 -55.7617 L 40.0391 -55.7617 C 38.0371 -55.7617 36.6211 -55.3223 35.9863 -54.834 L 56.543 -34.2285 C 57.5195 -33.252 58.3984 -32.959 59.2285 -32.959 Z M 49.8535 -35.2539 L 33.4961 -51.6113 C 33.1543 -51.0742 32.959 -49.8535 32.959 -48.1445 L 32.959 -22.3633 C 32.959 -20.6543 33.1055 -19.4824 33.4473 -18.8965 Z M 68.457 -35.2539 L 84.8633 -18.8965 C 85.2051 -19.4824 85.4004 -20.6543 85.4004 -22.3633 L 85.4004 -48.1445 C 85.4004 -49.8535 85.2051 -51.0742 84.8633 -51.6113 Z M 59.1797 -28.9551 C 57.4707 -28.9551 56.0547 -29.5898 54.2969 -31.25 L 52.832 -32.5684 L 35.9375 -15.6738 C 36.6211 -15.0879 37.9883 -14.7461 40.0391 -14.7461 L 78.3691 -14.7461 C 80.4199 -14.7461 81.7871 -15.0879 82.4707 -15.6738 L 65.5273 -32.5684 L 64.1113 -31.25 C 62.3047 -29.5898 60.9375 -28.9551 59.1797 -28.9551 Z"/>
  </g>
  <g id="Regular-M" transform="matrix(1 0 0 1 1391.3 1126)">
   <path d="M 58.5449 14.5508 C 85.791 14.5508 108.35 -8.05664 108.35 -35.2539 C 108.35 -62.5 85.7422 -85.0586 58.4961 -85.0586 C 31.2988 -85.0586 8.74023 -62.5 8.74023 -35.2539 C 8.74023 -8.05664 31.3477 14.5508 58.5449 14.5508 Z M 58.5449 6.25 C 35.498 6.25 17.0898 -12.207 17.0898 -35.2539 C 17.0898 -58.3008 35.4492 -76.7578 58.4961 -76.7578 C 81.543 -76.7578 100 -58.3008 100.049 -35.2539 C 100.098 -12.207 81.5918 6.25 58.5449 6.25 Z M 58.5449 -32.6172 C 59.375 -32.6172 60.2539 -32.9102 61.1816 -33.8379 L 82.5195 -55.1758 C 81.8848 -55.6641 80.4688 -56.1523 78.418 -56.1523 L 38.5742 -56.1523 C 36.5234 -56.1523 35.1562 -55.6641 34.5215 -55.1758 L 55.8594 -33.8379 C 56.8359 -32.8613 57.7148 -32.6172 58.5449 -32.6172 Z M 48.9746 -35.1562 L 32.1289 -51.9531 C 31.8848 -51.4648 31.7383 -50.293 31.7383 -48.6328 L 31.7383 -21.875 C 31.7383 -20.166 31.8848 -18.9941 32.2266 -18.4082 Z M 67.9199 -35.1562 L 84.668 -18.4082 C 85.0098 -18.9941 85.2051 -20.166 85.2051 -21.875 L 85.2051 -48.6328 C 85.2051 -50.293 85.0098 -51.4648 84.7656 -51.9531 Z M 58.4961 -28.7598 C 56.7383 -28.7598 55.3711 -29.3945 53.5156 -31.1035 L 51.9531 -32.5684 L 34.6191 -15.2832 C 35.2051 -14.6973 36.5723 -14.3555 38.5742 -14.3555 L 78.3691 -14.3555 C 80.4199 -14.3555 81.7383 -14.6973 82.3242 -15.2832 L 65.0391 -32.5684 L 63.4766 -31.1035 C 61.5723 -29.3945 60.2539 -28.7598 58.4961 -28.7598 Z"/>
  </g>
  <g id="Light-M" transform="matrix(1 0 0 1 1095.42 1126)">
   <path d="M 57.7148 13.7207 C 84.5215 13.7207 106.689 -8.44727 106.689 -35.2539 C 106.689 -62.1094 84.5215 -84.2285 57.666 -84.2285 C 30.8594 -84.2285 8.74023 -62.1094 8.74023 -35.2539 C 8.74023 -8.44727 30.9082 13.7207 57.7148 13.7207 Z M 57.7148 7.37305 C 34.082 7.37305 15.0879 -11.6699 15.0879 -35.2539 C 15.0879 -58.8867 34.082 -77.9297 57.666 -77.9297 C 81.2988 -77.9297 100.342 -58.8867 100.391 -35.2539 C 100.391 -11.6699 81.3477 7.37305 57.7148 7.37305 Z M 57.7637 -32.2266 C 58.6426 -32.2266 59.6191 -32.6172 60.498 -33.4961 L 81.9336 -54.9316 C 81.3477 -55.4688 79.8828 -55.957 77.7832 -55.957 L 37.7441 -55.957 C 35.6445 -55.957 34.1797 -55.4688 33.5938 -54.9316 L 54.9805 -33.4961 C 55.9082 -32.5684 56.8848 -32.2266 57.7637 -32.2266 Z M 48.6328 -35.0586 L 31.4941 -52.1484 C 31.2012 -51.6602 31.0059 -50.4395 31.0059 -48.8281 L 31.0059 -21.6797 C 31.0059 -19.9219 31.2012 -18.75 31.6406 -18.1152 Z M 66.6992 -35.0586 L 83.6426 -18.1152 C 84.082 -18.75 84.3262 -19.9219 84.3262 -21.6797 L 84.3262 -48.8281 C 84.3262 -50.4395 84.1309 -51.6602 83.7891 -52.1484 Z M 57.7637 -29.0039 C 56.0547 -29.0039 54.6387 -29.6387 52.9785 -31.1523 L 51.2207 -32.8613 L 33.7402 -15.4297 C 34.375 -14.7949 35.6934 -14.502 37.7441 -14.502 L 77.7344 -14.502 C 79.7852 -14.502 81.1035 -14.7949 81.6895 -15.4297 L 64.3066 -32.8613 L 62.4512 -31.1523 C 60.791 -29.6387 59.4238 -29.0039 57.7637 -29.0039 Z"/>
  </g>
  <g id="Thin-M" transform="matrix(1 0 0 1 799.806 1126)">
   <path d="M 56.6406 12.5977 C 82.9102 12.5977 104.492 -8.98438 104.492 -35.2539 C 104.492 -61.5723 82.9102 -83.1543 56.5918 -83.1543 C 30.3223 -83.1543 8.74023 -61.5723 8.74023 -35.2539 C 8.74023 -8.98438 30.3223 12.5977 56.6406 12.5977 Z M 56.6406 8.88672 C 32.2266 8.88672 12.4512 -10.8887 12.4512 -35.2539 C 12.4512 -59.6191 32.2266 -79.4434 56.5918 -79.4434 C 81.0059 -79.4434 100.781 -59.6191 100.781 -35.2539 C 100.781 -10.8887 81.0059 8.88672 56.6406 8.88672 Z M 56.7871 -31.6895 C 57.666 -31.6895 58.7891 -32.1777 59.6191 -33.0078 L 81.2012 -54.541 C 80.6152 -55.2246 79.1016 -55.7617 76.9043 -55.7617 L 36.6211 -55.7617 C 34.4238 -55.7617 32.9102 -55.2246 32.3242 -54.541 L 53.8574 -33.0078 C 54.7363 -32.1777 55.8594 -31.6895 56.7871 -31.6895 Z M 48.1445 -34.9121 L 30.6641 -52.3926 C 30.2734 -51.8555 30.0781 -50.6836 30.0781 -49.0234 L 30.0781 -21.3867 C 30.0781 -19.6289 30.3223 -18.4082 30.9082 -17.6758 Z M 65.0391 -34.9121 L 82.3242 -17.6758 C 82.8613 -18.4082 83.1543 -19.6289 83.1543 -21.3867 L 83.1543 -49.0234 C 83.1543 -50.6836 82.9102 -51.8555 82.5684 -52.3926 Z M 56.7383 -29.2969 C 55.1758 -29.2969 53.7109 -29.9316 52.2949 -31.25 L 50.1953 -33.2031 L 32.6172 -15.6738 C 33.252 -14.9414 34.5215 -14.6973 36.6211 -14.6973 L 76.9043 -14.6973 C 79.0039 -14.6973 80.2734 -14.9414 80.8594 -15.6738 L 63.2812 -33.2031 L 61.1328 -31.25 C 59.7656 -29.9316 58.3496 -29.2969 56.7383 -29.2969 Z"/>
  </g>
  <g id="Ultralight-M" transform="matrix(1 0 0 1 503.656 1126)">
   <path d="M 56.0547 12.0605 C 82.0801 12.0605 103.369 -9.22852 103.369 -35.2539 C 103.369 -61.2793 82.0801 -82.5684 56.0547 -82.5684 C 30.0293 -82.5684 8.74023 -61.2793 8.74023 -35.2539 C 8.74023 -9.22852 30.0293 12.0605 56.0547 12.0605 Z M 56.0547 9.66797 C 31.2988 9.66797 11.1328 -10.498 11.1328 -35.2539 C 11.1328 -60.0586 31.2988 -80.1758 56.0547 -80.1758 C 80.8594 -80.1758 100.977 -60.0586 100.977 -35.2539 C 100.977 -10.498 80.8594 9.66797 56.0547 9.66797 Z M 56.25 -31.4453 C 57.1777 -31.4453 58.3984 -31.9336 59.1797 -32.7637 L 80.8105 -54.3945 C 80.2734 -55.0781 78.7109 -55.6152 76.4648 -55.6152 L 36.0352 -55.6152 C 33.7891 -55.6152 32.2266 -55.0781 31.6895 -54.3945 L 53.2715 -32.7637 C 54.1504 -31.9336 55.3223 -31.4453 56.25 -31.4453 Z M 47.9492 -34.8145 L 30.2246 -52.5391 C 29.834 -51.9531 29.5898 -50.7812 29.5898 -49.1699 L 29.5898 -21.2402 C 29.5898 -19.4824 29.8828 -18.2129 30.5176 -17.4805 Z M 64.209 -34.8145 L 81.5918 -17.4805 C 82.2266 -18.2129 82.5684 -19.4824 82.5684 -21.2402 L 82.5684 -49.1699 C 82.5684 -50.7812 82.2754 -51.9531 81.9336 -52.5391 Z M 56.25 -29.4922 C 54.6875 -29.4922 53.2227 -30.0781 51.9531 -31.2988 L 49.707 -33.3984 L 31.9824 -15.7715 C 32.7148 -14.9902 33.9355 -14.7461 36.0352 -14.7461 L 76.4648 -14.7461 C 78.5645 -14.7461 79.834 -14.9902 80.4199 -15.7715 L 62.793 -33.3984 L 60.498 -31.2988 C 59.2285 -30.0781 57.8125 -29.4922 56.25 -29.4922 Z"/>
  </g>
  <g id="Black-S" transform="matrix(1 0 0 1 2884.57 696)">
   <path d="M 48.8281 6.78711 C 71.9727 6.78711 90.8203 -12.0605 90.8203 -35.2051 C 90.8203 -58.3496 71.9727 -77.1973 48.8281 -77.1973 C 25.6836 -77.1973 6.83594 -58.3496 6.83594 -35.2051 C 6.83594 -12.0605 25.6836 6.78711 48.8281 6.78711 Z M 48.8281 -7.37305 C 33.4473 -7.37305 20.9961 -19.8242 20.9961 -35.2051 C 20.9961 -50.5859 33.4473 -63.0371 48.8281 -63.0371 C 64.209 -63.0371 76.6602 -50.5859 76.6602 -35.2051 C 76.6602 -19.8242 64.209 -7.37305 48.8281 -7.37305 Z M 48.8281 -34.668 C 49.5605 -34.668 50.1953 -35.0586 50.9766 -35.8398 L 64.4043 -49.3164 C 63.6719 -49.7559 62.5977 -50 61.1816 -50 L 36.4746 -50 C 35.0586 -50 33.9355 -49.7559 33.252 -49.3164 L 46.6797 -35.8398 C 47.4609 -35.0586 48.0957 -34.668 48.8281 -34.668 Z M 42.1875 -35.6445 L 30.8105 -46.9238 C 30.3223 -46.1914 30.0293 -45.0684 30.0293 -43.6035 L 30.0293 -26.8066 C 30.0293 -25.5371 30.2246 -24.6094 30.5664 -23.9746 Z M 55.4688 -35.6445 L 67.0898 -23.9746 C 67.4316 -24.6094 67.627 -25.5371 67.627 -26.8066 L 67.627 -43.6035 C 67.627 -45.0684 67.334 -46.1914 66.8457 -46.9238 Z M 48.8281 -30.957 C 47.4609 -30.957 46.2402 -31.4941 45.2148 -32.5195 L 44.5312 -33.2031 L 32.666 -21.3379 C 33.4473 -20.752 34.7168 -20.4102 36.377 -20.4102 L 61.2793 -20.4102 C 62.9395 -20.4102 64.209 -20.752 64.9902 -21.3379 L 53.125 -33.2031 L 52.4414 -32.5195 C 51.416 -31.4941 50.1953 -30.957 48.8281 -30.957 Z"/>
  </g>
  <g id="Heavy-S" transform="matrix(1 0 0 1 2588.47 696)">
   <path d="M 48.2422 6.15234 C 70.9961 6.15234 89.5996 -12.4512 89.5996 -35.2051 C 89.5996 -57.959 70.9961 -76.6113 48.1934 -76.6113 C 25.4395 -76.6113 6.83594 -57.959 6.83594 -35.2051 C 6.83594 -12.4512 25.4395 6.15234 48.2422 6.15234 Z M 48.2422 -6.39648 C 32.2754 -6.39648 19.4336 -19.2871 19.4336 -35.2051 C 19.4336 -51.1719 32.2754 -64.0137 48.1934 -64.0137 C 64.1602 -64.0137 77.002 -51.1719 77.0508 -35.2051 C 77.0508 -19.2871 64.1602 -6.39648 48.2422 -6.39648 Z M 48.1934 -34.375 C 48.9258 -34.375 49.5605 -34.7168 50.3418 -35.498 L 64.502 -49.707 C 63.8672 -50.1465 62.793 -50.3906 61.3281 -50.3906 L 35.1074 -50.3906 C 33.6426 -50.3906 32.5195 -50.1465 31.8848 -49.707 L 46.0938 -35.498 C 46.875 -34.7168 47.5098 -34.375 48.1934 -34.375 Z M 41.3086 -35.5469 L 29.541 -47.2168 C 29.1504 -46.582 28.9062 -45.5078 28.9062 -44.0918 L 28.9062 -26.3672 C 28.9062 -25.0488 29.0527 -24.1211 29.3945 -23.584 Z M 55.0781 -35.5469 L 67.041 -23.584 C 67.334 -24.1211 67.5293 -25.0488 67.5293 -26.3672 L 67.5293 -44.0918 C 67.5293 -45.5078 67.2852 -46.582 66.8457 -47.2168 Z M 48.1934 -30.7617 C 46.8262 -30.7617 45.6543 -31.25 44.4824 -32.373 L 43.7012 -33.1543 L 31.4453 -20.8984 C 32.1777 -20.3613 33.3984 -20.0195 35.0098 -20.0195 L 61.377 -20.0195 C 63.0371 -20.0195 64.2578 -20.3613 64.9414 -20.8984 L 52.6855 -33.1543 L 51.9043 -32.373 C 50.7324 -31.25 49.5605 -30.7617 48.1934 -30.7617 Z"/>
  </g>
  <g id="Bold-S" transform="matrix(1 0 0 1 2292.44 696)">
   <path d="M 47.5586 5.46875 C 69.873 5.46875 88.2324 -12.8906 88.2324 -35.2539 C 88.2324 -57.5684 69.873 -75.9277 47.5098 -75.9277 C 25.1953 -75.9277 6.83594 -57.5684 6.83594 -35.2539 C 6.83594 -12.8906 25.1953 5.46875 47.5586 5.46875 Z M 47.5586 -5.32227 C 30.957 -5.32227 17.6758 -18.6523 17.6758 -35.2539 C 17.6758 -51.8066 30.957 -65.1367 47.5098 -65.1367 C 64.1113 -65.1367 77.4414 -51.8066 77.4414 -35.2539 C 77.4414 -18.6523 64.1113 -5.32227 47.5586 -5.32227 Z M 47.5098 -34.0332 C 48.1934 -34.0332 48.877 -34.3262 49.6094 -35.0586 L 64.6484 -50.1465 C 64.0625 -50.5371 62.9883 -50.8301 61.4746 -50.8301 L 33.5449 -50.8301 C 32.0801 -50.8301 30.957 -50.5371 30.3711 -50.1465 L 45.4102 -35.0586 C 46.1914 -34.3262 46.8262 -34.0332 47.5098 -34.0332 Z M 40.332 -35.4492 L 28.125 -47.5586 C 27.7832 -47.0215 27.5879 -45.9961 27.5879 -44.6289 L 27.5879 -25.8301 C 27.5879 -24.5605 27.7344 -23.6328 28.0273 -23.0957 Z M 54.6387 -35.4492 L 66.9434 -23.0957 C 67.2363 -23.6328 67.3828 -24.5605 67.3828 -25.8301 L 67.3828 -44.6289 C 67.3828 -45.9961 67.1875 -47.0215 66.8457 -47.5586 Z M 47.5098 -30.5176 C 46.0938 -30.5176 44.9707 -31.0059 43.7012 -32.2754 L 42.7734 -33.1055 L 30.127 -20.4102 C 30.7129 -19.9219 31.8848 -19.6289 33.4961 -19.6289 L 61.4746 -19.6289 C 63.1348 -19.6289 64.2578 -19.9219 64.8926 -20.4102 L 52.1973 -33.1055 L 51.3184 -32.2754 C 50 -31.0059 48.877 -30.5176 47.5098 -30.5176 Z"/>
  </g>
  <g id="Semibold-S" transform="matrix(1 0 0 1 1996.2 696)">
   <path d="M 47.0703 4.98047 C 69.0918 4.98047 87.3047 -13.1836 87.3047 -35.2539 C 87.3047 -57.2754 69.0918 -75.4883 47.0215 -75.4883 C 25 -75.4883 6.83594 -57.2754 6.83594 -35.2539 C 6.83594 -13.1836 25.0488 4.98047 47.0703 4.98047 Z M 47.0703 -4.58984 C 30.0781 -4.58984 16.4551 -18.2129 16.4551 -35.2539 C 16.4551 -52.2461 30.0293 -65.8691 47.0215 -65.8691 C 64.0625 -65.8691 77.6855 -52.2461 77.7344 -35.2539 C 77.7344 -18.2129 64.0625 -4.58984 47.0703 -4.58984 Z M 47.0703 -33.7891 C 47.7051 -33.7891 48.3398 -34.082 49.1211 -34.8145 L 64.7461 -50.4395 C 64.1602 -50.8301 63.0859 -51.1719 61.5723 -51.1719 L 32.4707 -51.1719 C 30.957 -51.1719 29.8828 -50.8301 29.3457 -50.4395 L 44.9707 -34.8145 C 45.752 -34.0332 46.3867 -33.7891 47.0703 -33.7891 Z M 39.6973 -35.3516 L 27.1973 -47.8027 C 26.9043 -47.3633 26.709 -46.3379 26.709 -44.9707 L 26.709 -25.4883 C 26.709 -24.1699 26.8555 -23.2422 27.0996 -22.7539 Z M 54.3457 -35.3516 L 66.8945 -22.7539 C 67.1875 -23.2422 67.2852 -24.1699 67.2852 -25.4883 L 67.2852 -44.9707 C 67.2852 -46.3379 67.1387 -47.3633 66.8457 -47.8027 Z M 47.0215 -30.3711 C 45.6055 -30.3711 44.5312 -30.8594 43.1152 -32.1777 L 42.1387 -33.0566 L 29.1992 -20.0684 C 29.7363 -19.6289 30.8594 -19.3359 32.4707 -19.3359 L 61.5723 -19.3359 C 63.1836 -19.3359 64.3066 -19.6289 64.8438 -20.0684 L 51.9043 -33.0566 L 50.9277 -32.1777 C 49.5117 -30.8594 48.3887 -30.3711 47.0215 -30.3711 Z"/>
  </g>
  <g id="Medium-S" transform="matrix(1 0 0 1 1699.83 696)">
   <path d="M 46.7285 4.63867 C 68.5547 4.63867 86.6211 -13.4277 86.6211 -35.2539 C 86.6211 -57.0801 68.5059 -75.1465 46.6797 -75.1465 C 24.8535 -75.1465 6.83594 -57.0801 6.83594 -35.2539 C 6.83594 -13.4277 24.9023 4.63867 46.7285 4.63867 Z M 46.7285 -4.00391 C 29.3945 -4.00391 15.5273 -17.9199 15.5273 -35.2539 C 15.5273 -52.5879 29.3457 -66.4551 46.6797 -66.4551 C 64.0137 -66.4551 77.8809 -52.5879 77.9297 -35.2539 C 77.9785 -17.9199 64.0625 -4.00391 46.7285 -4.00391 Z M 46.6797 -33.5938 C 47.3633 -33.5938 47.998 -33.8379 48.7305 -34.5703 L 64.7949 -50.6836 C 64.3066 -51.0742 63.1836 -51.3672 61.6699 -51.3672 L 31.6895 -51.3672 C 30.127 -51.3672 29.0527 -51.0742 28.5156 -50.6836 L 44.6289 -34.5703 C 45.3613 -33.8379 46.0449 -33.5938 46.6797 -33.5938 Z M 39.1602 -35.3027 L 26.4648 -47.998 C 26.1719 -47.5586 26.0742 -46.6309 26.0742 -45.2637 L 26.0742 -25.1953 C 26.0742 -23.9258 26.1719 -22.998 26.416 -22.5098 Z M 54.1016 -35.3027 L 66.8945 -22.5098 C 67.0898 -22.998 67.2363 -23.9258 67.2363 -25.1953 L 67.2363 -45.2637 C 67.2363 -46.6309 67.0898 -47.5586 66.8457 -47.998 Z M 46.6309 -30.2246 C 45.2637 -30.2246 44.1895 -30.7129 42.7246 -32.0801 L 41.6504 -33.0566 L 28.4668 -19.8242 C 28.9551 -19.3848 30.0781 -19.0918 31.6406 -19.0918 L 61.6211 -19.0918 C 63.2324 -19.0918 64.3066 -19.3848 64.8438 -19.8242 L 51.6113 -33.0566 L 50.5859 -32.0801 C 49.1211 -30.7129 48.0469 -30.2246 46.6309 -30.2246 Z"/>
  </g>
  <g id="Regular-S" transform="matrix(1 0 0 1 1403.58 696)">
   <path d="M 46.2402 4.15039 C 67.7734 4.15039 85.6934 -13.7207 85.6934 -35.2539 C 85.6934 -56.7871 67.7246 -74.6582 46.1914 -74.6582 C 24.707 -74.6582 6.83594 -56.7871 6.83594 -35.2539 C 6.83594 -13.7207 24.7559 4.15039 46.2402 4.15039 Z M 46.2402 -3.27148 C 28.5156 -3.27148 14.3555 -17.4805 14.3555 -35.2539 C 14.3555 -53.0273 28.4668 -67.2363 46.1914 -67.2363 C 63.9648 -67.2363 78.1738 -53.0273 78.2227 -35.2539 C 78.2715 -17.4805 64.0137 -3.27148 46.2402 -3.27148 Z M 46.2402 -33.3984 C 46.875 -33.3984 47.5098 -33.5938 48.2422 -34.3262 L 64.8926 -50.9766 C 64.4043 -51.3184 63.3301 -51.6602 61.7676 -51.6602 L 30.6152 -51.6602 C 29.0527 -51.6602 27.9785 -51.3184 27.4902 -50.9766 L 44.1406 -34.3262 C 44.9219 -33.5449 45.5566 -33.3984 46.2402 -33.3984 Z M 38.5254 -35.2539 L 25.4883 -48.2422 C 25.293 -47.9004 25.1953 -46.9727 25.1953 -45.6543 L 25.1953 -24.8535 C 25.1953 -23.5352 25.293 -22.6074 25.4883 -22.2168 Z M 53.8086 -35.2539 L 66.8457 -22.2168 C 67.041 -22.6074 67.1387 -23.5352 67.1387 -24.8535 L 67.1387 -45.6543 C 67.1387 -46.9727 67.041 -47.9004 66.8457 -48.2422 Z M 46.1914 -30.0781 C 44.7754 -30.0781 43.75 -30.5664 42.1387 -31.9824 L 41.0645 -33.0078 L 27.5391 -19.5312 C 27.9785 -19.0918 29.0527 -18.7988 30.6152 -18.7988 L 61.7188 -18.7988 C 63.2812 -18.7988 64.3555 -19.0918 64.7949 -19.5312 L 51.3184 -33.0078 L 50.1953 -31.9824 C 48.6328 -30.5664 47.5586 -30.0781 46.1914 -30.0781 Z"/>
  </g>
  <g id="Light-S" transform="matrix(1 0 0 1 1107.6 696)">
   <path d="M 45.5078 3.41797 C 66.6992 3.41797 84.2285 -14.0625 84.2285 -35.2539 C 84.2285 -56.4453 66.6504 -73.9258 45.5078 -73.9258 C 24.3164 -73.9258 6.83594 -56.4453 6.83594 -35.2539 C 6.83594 -14.0625 24.3652 3.41797 45.5078 3.41797 Z M 45.5078 -2.29492 C 27.2461 -2.29492 12.5977 -16.9922 12.5977 -35.2539 C 12.5977 -53.5156 27.1973 -68.2129 45.5078 -68.2129 C 63.7695 -68.2129 78.4668 -53.5156 78.5156 -35.2539 C 78.5156 -16.9922 63.8184 -2.29492 45.5078 -2.29492 Z M 45.5566 -33.0566 C 46.1914 -33.0566 46.9727 -33.3008 47.6562 -33.9844 L 64.4043 -50.7324 C 63.916 -51.1719 62.793 -51.5137 61.1816 -51.5137 L 29.8828 -51.5137 C 28.2715 -51.5137 27.1484 -51.1719 26.6602 -50.7324 L 43.4082 -33.9844 C 44.1406 -33.252 44.873 -33.0566 45.5566 -33.0566 Z M 38.2324 -35.1562 L 24.9023 -48.3887 C 24.707 -48.0469 24.5605 -47.1191 24.5605 -45.8008 L 24.5605 -24.6582 C 24.5605 -23.3398 24.707 -22.4121 25 -21.9238 Z M 52.7344 -35.1562 L 65.918 -21.9238 C 66.2109 -22.4121 66.3574 -23.3398 66.3574 -24.6582 L 66.3574 -45.8008 C 66.3574 -47.1191 66.2598 -48.0469 66.0156 -48.3887 Z M 45.5078 -30.2734 C 44.1895 -30.2734 43.0664 -30.7617 41.6992 -32.0312 L 40.3809 -33.252 L 26.7578 -19.6777 C 27.2461 -19.1895 28.2715 -18.9453 29.8828 -18.9453 L 61.1328 -18.9453 C 62.7441 -18.9453 63.7695 -19.1895 64.2578 -19.6777 L 50.6348 -33.252 L 49.3164 -32.0312 C 47.9004 -30.7617 46.875 -30.2734 45.5078 -30.2734 Z"/>
  </g>
  <g id="Thin-S" transform="matrix(1 0 0 1 811.867 696)">
   <path d="M 44.5801 2.49023 C 65.2832 2.49023 82.2754 -14.5508 82.2754 -35.2539 C 82.2754 -55.957 65.2344 -72.998 44.5312 -72.998 C 23.8281 -72.998 6.83594 -55.957 6.83594 -35.2539 C 6.83594 -14.5508 23.877 2.49023 44.5801 2.49023 Z M 44.5801 -0.927734 C 25.5859 -0.927734 10.2539 -16.3086 10.2539 -35.2539 C 10.2539 -54.1992 25.5859 -69.5801 44.5312 -69.5801 C 63.5254 -69.5801 78.8574 -54.1992 78.8574 -35.2539 C 78.8574 -16.3086 63.5254 -0.927734 44.5801 -0.927734 Z M 44.6777 -32.5684 C 45.3613 -32.5684 46.2402 -32.9102 46.875 -33.5938 L 63.7695 -50.4395 C 63.2812 -50.9277 62.1094 -51.3672 60.4004 -51.3672 L 28.9062 -51.3672 C 27.1973 -51.3672 26.0254 -50.9277 25.5371 -50.4395 L 42.3828 -33.5938 C 43.1152 -32.9102 43.9453 -32.5684 44.6777 -32.5684 Z M 37.793 -35.0098 L 24.1699 -48.6328 C 23.877 -48.1934 23.7305 -47.2656 23.7305 -45.9961 L 23.7305 -24.4141 C 23.7305 -23.0957 23.9258 -22.1191 24.3652 -21.582 Z M 51.2695 -35.0098 L 64.7461 -21.582 C 65.1367 -22.1191 65.332 -23.0957 65.332 -24.4141 L 65.332 -45.9961 C 65.332 -47.2656 65.1855 -48.1934 64.8926 -48.6328 Z M 44.6289 -30.5176 C 43.3594 -30.5176 42.2363 -31.0059 41.1133 -32.0801 L 39.502 -33.5938 L 25.7324 -19.8242 C 26.2695 -19.2871 27.2461 -19.0918 28.9062 -19.0918 L 60.4004 -19.0918 C 62.0117 -19.0918 63.0371 -19.2871 63.5254 -19.8242 L 49.7559 -33.5938 L 48.1445 -32.0801 C 47.0215 -31.0059 45.8984 -30.5176 44.6289 -30.5176 Z"/>
  </g>
  <g id="Ultralight-S" transform="matrix(1 0 0 1 515.644 696)">
   <path d="M 44.043 1.95312 C 64.502 1.95312 81.2988 -14.7949 81.2988 -35.2539 C 81.2988 -55.7129 64.502 -72.4609 44.043 -72.4609 C 23.584 -72.4609 6.83594 -55.7129 6.83594 -35.2539 C 6.83594 -14.7949 23.584 1.95312 44.043 1.95312 Z M 44.043 -0.244141 C 24.7559 -0.244141 9.08203 -15.9668 9.08203 -35.2539 C 9.08203 -54.541 24.7559 -70.2637 44.043 -70.2637 C 63.3789 -70.2637 79.0527 -54.541 79.0527 -35.2539 C 79.0527 -15.9668 63.3789 -0.244141 44.043 -0.244141 Z M 44.1895 -32.3242 C 44.9219 -32.3242 45.8496 -32.7148 46.4844 -33.3496 L 63.4277 -50.293 C 62.9883 -50.8301 61.7676 -51.2207 60.0098 -51.2207 L 28.3691 -51.2207 C 26.6602 -51.2207 25.4395 -50.8301 25 -50.293 L 41.8457 -33.3496 C 42.5781 -32.7148 43.457 -32.3242 44.1895 -32.3242 Z M 37.5977 -34.9121 L 23.7793 -48.7305 C 23.4863 -48.3398 23.291 -47.4121 23.291 -46.0938 L 23.291 -24.3164 C 23.291 -22.9492 23.5352 -21.9727 24.0234 -21.3867 Z M 50.5371 -34.9121 L 64.1113 -21.3867 C 64.5996 -21.9727 64.7949 -22.9492 64.7949 -24.3164 L 64.7949 -46.0938 C 64.7949 -47.4121 64.6484 -48.3398 64.3555 -48.7305 Z M 44.1895 -30.6641 C 42.9688 -30.6641 41.7969 -31.1523 40.7715 -32.1289 L 39.0625 -33.7402 L 25.1953 -19.9707 C 25.7324 -19.3848 26.709 -19.1895 28.3691 -19.1895 L 60.0098 -19.1895 C 61.6699 -19.1895 62.6465 -19.3848 63.1348 -19.9707 L 49.3164 -33.7402 L 47.5586 -32.1289 C 46.5332 -31.1523 45.4102 -30.6641 44.1895 -30.6641 Z"/>
  </g>
 </g>
</svg>
